<svg fill="#000000" xmlns="http://www.w3.org/2000/svg"  viewBox="0 0 64 64" width="64px" height="64px"><path d="M 18.238281 6 C 15.124281 6 12.589844 8.5334375 12.589844 11.648438 C 12.589844 12.435438 12.755969 13.182281 13.042969 13.863281 C 12.978969 13.918281 2.046875 34.350297 2.046875 48.404297 C 2.046875 51.244297 2.52725 52.514344 2.53125 52.527344 C 3.94725 57.939344 11.046875 59 11.046875 59 C 11.046875 59 8.046875 56.5 8.046875 51 C 8.046875 46 11.046875 30 16.046875 23 C 14.802875 21.545 13.845703 19.894781 13.845703 17.925781 C 13.845703 16.663781 14.181922 15.495141 14.669922 14.369141 C 15.262922 13.000141 17.046875 10.796 19.046875 10 C 19.046875 8.511 20.277875 7 22.046875 7 C 21.072875 6.199 19.605281 6 18.238281 6 z M 45.353516 6 C 43.986516 6 42.020875 6.199 41.046875 7 C 42.815875 7.381 44.046875 8.561 44.046875 10 C 46.546875 11 48.046875 13.131 48.546875 14.5 C 48.967875 15.653 49.046875 16.738 49.046875 18 C 49.046875 19.968 48.290875 21.545 47.046875 23 C 53.031875 32 56.046875 46 56.046875 51 C 56.046875 56.5 53.03125 58.972656 53.03125 58.972656 C 53.03125 58.972656 60.130875 57.912 61.546875 52.5 C 61.550875 52.487 62.03125 51.216953 62.03125 48.376953 C 62.03125 34.322953 50.614781 13.918281 50.550781 13.863281 C 50.837781 13.181281 51.003906 12.435437 51.003906 11.648438 C 51.003906 8.5334375 48.467516 6 45.353516 6 z M 25.896484 8.5117188 C 24.081484 8.5117188 22.358828 9.2961562 21.173828 10.660156 C 20.704828 11.196156 20.330266 11.809891 20.072266 12.462891 C 18.489266 12.881891 17.132781 13.986703 16.425781 15.470703 C 16.046781 16.230703 15.853516 17.055781 15.853516 17.925781 C 15.853516 19.697781 16.684875 21.335719 18.046875 22.386719 L 18.046875 32.710938 L 10.833984 39.199219 L 28.259766 51.34375 C 28.253766 51.36175 28.248187 51.379438 28.242188 51.398438 L 18.046875 48 L 21.046875 60 L 28.904297 54.761719 C 29.548297 55.511719 30.490875 56 31.546875 56 C 32.602875 56 33.5435 55.511719 34.1875 54.761719 L 42.046875 60 L 45.046875 48 L 34.849609 51.398438 C 34.843609 51.380437 34.838031 51.36175 34.832031 51.34375 L 52.257812 39.199219 L 45.046875 32.708984 L 45.046875 22.384766 C 46.407875 21.335766 47.236328 19.696781 47.236328 17.925781 C 47.236328 17.055781 47.045781 16.229281 46.675781 15.488281 C 45.960781 13.988281 44.602531 12.881891 43.019531 12.462891 C 42.760531 11.809891 42.386922 11.198109 41.919922 10.662109 C 40.732922 9.2951094 39.008359 8.5117188 37.193359 8.5117188 C 35.048359 8.5117188 32.901922 9.5527031 31.544922 11.095703 C 30.188922 9.5527031 28.040484 8.5117188 25.896484 8.5117188 z M 29.035156 21.0625 C 30.055156 21.0625 30.404875 21.599047 30.421875 21.623047 C 30.625875 22.034047 31.051766 22.278922 31.509766 22.294922 C 32.025766 22.330922 32.413484 22.053156 32.646484 21.660156 C 32.684484 21.600156 33.035641 21.0625 34.056641 21.0625 C 34.476641 21.0625 34.887984 21.203078 35.208984 21.455078 C 35.672984 21.823078 35.939453 22.366313 35.939453 22.945312 C 35.939453 23.107312 35.916188 23.265453 35.867188 23.439453 C 35.704188 24.057453 35.218469 24.557094 34.605469 24.746094 C 34.074469 24.908094 33.712797 25.399125 33.716797 25.953125 C 33.720797 26.508125 34.088094 26.996344 34.621094 27.152344 C 35.049094 27.278344 35.493453 27.339844 35.939453 27.339844 C 37.192453 27.339844 38.373297 26.883406 39.279297 26.066406 C 39.895297 26.118406 40.489875 26.053344 41.046875 25.902344 L 41.046875 33.353516 C 38.997875 35.977516 34.184875 39.129406 31.546875 40.691406 C 28.908875 39.130406 24.098875 35.981516 22.046875 33.353516 L 22.046875 25.90625 C 22.602875 26.05625 23.194547 26.118406 23.810547 26.066406 C 25.038547 27.173406 26.838703 27.626344 28.470703 27.152344 C 29.002703 26.996344 29.370047 26.510078 29.373047 25.955078 C 29.377047 25.400078 29.015375 24.908094 28.484375 24.746094 C 27.870375 24.559094 27.385797 24.058922 27.216797 23.419922 C 27.173797 23.266922 27.152344 23.107312 27.152344 22.945312 C 27.152344 22.366312 27.418953 21.824938 27.876953 21.460938 C 28.202953 21.204937 28.614156 21.0625 29.035156 21.0625 z M 27.150391 27.980469 C 25.856266 27.907016 24.481922 28.312969 23.044922 28.980469 L 24.544922 29.480469 C 24.544922 29.479469 24.605781 30.058359 24.675781 30.943359 C 24.752781 30.683359 24.982578 30.490234 25.267578 30.490234 C 25.613578 30.490234 25.894531 30.770188 25.894531 31.117188 C 25.894531 31.463188 25.613578 31.746094 25.267578 31.746094 C 25.028578 31.746094 24.829656 31.608109 24.722656 31.412109 C 24.810656 32.119109 24.980641 32.779953 25.306641 33.001953 L 29.044922 32.980469 C 29.044922 32.980469 29.911922 31.980469 30.044922 29.980469 C 30.095922 29.226469 29.134969 28.464656 28.417969 28.222656 C 28.005469 28.083406 27.581766 28.004953 27.150391 27.980469 z M 35.939453 28 C 35.508141 28.024484 35.086078 28.100984 34.673828 28.240234 C 33.956828 28.482234 32.996875 29.246 33.046875 30 C 33.179875 32 34.046875 33 34.046875 33 L 37.783203 33.019531 C 38.108203 32.797531 38.279188 32.137641 38.367188 31.431641 C 38.260188 31.627641 38.061266 31.765625 37.822266 31.765625 C 37.476266 31.765625 37.195312 31.483719 37.195312 31.136719 C 37.195312 30.789719 37.476266 30.509766 37.822266 30.509766 C 38.107266 30.509766 38.339016 30.704844 38.416016 30.964844 C 38.486016 30.079844 38.546875 29.5 38.546875 29.5 L 40.046875 29 C 38.610625 28.3325 37.233391 27.926547 35.939453 28 z M 27.044922 28.980469 C 27.608922 28.980469 28.083937 29.639281 28.085938 30.488281 C 28.085938 31.339281 27.608922 31.980469 27.044922 31.980469 C 26.481922 31.980469 26.044922 31.339234 26.044922 30.490234 C 26.044922 29.638234 26.481922 28.980469 27.044922 28.980469 z M 36.046875 29 C 36.610875 29 37.046875 29.658766 37.046875 30.509766 C 37.046875 31.359766 36.610875 32 36.046875 32 C 35.483875 32 35.005859 31.358812 35.005859 30.507812 C 35.006859 29.657813 35.483875 29 36.046875 29 z M 30.046875 35 C 29.599875 35 29.308812 35.470141 29.507812 35.869141 L 30.972656 38 C 31.193656 38.443 31.825875 38.443 32.046875 38 L 33.583984 35.869141 C 33.782984 35.470141 33.493875 35 33.046875 35 L 30.046875 35 z M 19.625 36.669922 C 23.182 40.575922 29.746219 44.288047 30.574219 44.748047 L 31.546875 45.287109 L 32.517578 44.748047 C 33.345578 44.289047 39.909797 40.574922 43.466797 36.669922 L 45.833984 38.800781 L 31.546875 48.759766 L 17.257812 38.800781 L 19.625 36.669922 z"/></svg>